<svg width="308" height="302" viewBox="0 0 308 302" fill="none" xmlns="http://www.w3.org/2000/svg">
<path d="M153.669 265.433C219.49 265.433 272.848 262.318 272.848 258.475C272.848 254.632 219.49 251.517 153.669 251.517C87.8478 251.517 34.4894 254.632 34.4894 258.475C34.4894 262.318 87.8478 265.433 153.669 265.433Z" fill="#F5F5F5"/>
<path d="M186.911 103.079L180.814 100.62C180.814 100.62 172.767 115.292 170.462 116.036C167.328 117.044 160.837 119.847 156.989 120.339C156.466 120.954 155.612 122.865 155.692 123.56C160.861 125.287 172.22 122.994 174.654 121.187C180.193 117.087 186.911 103.079 186.911 103.079Z" fill="#E58A7B"/>
<path d="M188.786 99.741C189.923 103.939 183.764 112.385 183.764 112.385L175.693 107.861C175.693 107.861 177.205 104.388 179.049 100.854C182.006 95.1433 187.489 94.9527 188.786 99.741Z" fill="#4CAF4F"/>
<path opacity="0.2" d="M188.786 99.741C189.923 103.939 183.764 112.385 183.764 112.385L175.693 107.861C175.693 107.861 177.205 104.388 179.049 100.854C182.006 95.1433 187.489 94.9527 188.786 99.741Z" fill="black"/>
<path opacity="0.2" d="M178.896 109.668L182.074 111.451L182.633 101.696C180.783 103.116 179.48 107.394 178.896 109.668Z" fill="black"/>
<path d="M183.475 96.5816C183.475 96.5816 177.193 110.559 180.857 136.585H205.61C206.003 132.786 204.7 114.247 209.414 96.348C206.699 95.8174 203.952 95.4662 201.19 95.2969C197.687 95.094 194.176 95.094 190.673 95.2969C188.245 95.5435 185.839 95.973 183.475 96.5816Z" fill="#4CAF4F"/>
<path opacity="0.2" d="M183.475 96.5816C183.475 96.5816 177.193 110.559 180.857 136.585H205.61C206.003 132.786 204.7 114.247 209.414 96.348C206.699 95.8174 203.952 95.4662 201.19 95.2969C197.687 95.094 194.176 95.094 190.673 95.2969C188.245 95.5435 185.839 95.973 183.475 96.5816Z" fill="black"/>
<g style="mix-blend-mode:multiply">
<path d="M177.734 259.028C177.697 259.692 187.083 260.227 198.694 260.227C210.306 260.227 219.759 259.692 219.796 259.028C219.833 258.364 210.453 257.836 198.836 257.836C187.218 257.836 177.777 258.37 177.734 259.028Z" fill="#E8ECF1"/>
</g>
<path d="M194.257 241.585L189.867 243.285L193.648 253.054L198.039 251.355L194.257 241.585Z" fill="#E58A7B"/>
<path d="M213.834 254.301H209.205L207.509 243.587H212.137L213.834 254.301Z" fill="#E58A7B"/>
<path d="M208.886 253.766H214.086C214.176 253.767 214.263 253.799 214.332 253.857C214.401 253.916 214.446 253.997 214.461 254.086L215.131 258.198C215.145 258.301 215.137 258.406 215.107 258.506C215.077 258.606 215.025 258.698 214.957 258.776C214.888 258.854 214.803 258.916 214.708 258.959C214.613 259.001 214.51 259.023 214.406 259.022C212.592 258.991 211.719 258.88 209.433 258.88C208.025 258.88 205.13 259.028 203.175 259.028C201.221 259.028 201.092 257.11 201.897 256.932C205.511 256.151 206.913 255.088 208.117 254.055C208.33 253.869 208.603 253.766 208.886 253.766Z" fill="#263238"/>
<path d="M193.519 252.18L198.436 250.742C198.524 250.717 198.618 250.723 198.701 250.759C198.785 250.795 198.854 250.858 198.897 250.939L200.741 254.627C200.784 254.72 200.806 254.822 200.805 254.925C200.805 255.028 200.782 255.13 200.738 255.223C200.694 255.316 200.63 255.398 200.551 255.464C200.472 255.53 200.38 255.578 200.28 255.604C198.492 256.096 197.293 256.397 195.056 257.049C193.513 257.497 191.939 258.229 190.415 258.714C189.358 259.053 186.874 259.065 185.59 259.065C183.69 259.065 183.266 257.061 184.084 256.969C186.143 256.741 186.419 256.846 187.557 256.274C189.417 255.461 191.104 254.296 192.523 252.844C192.791 252.539 193.134 252.31 193.519 252.18Z" fill="#263238"/>
<path d="M157.763 120.314L152.674 118.181L150.578 123.824C152.664 124.142 154.786 124.142 156.872 123.824L157.763 120.314Z" fill="#E58A7B"/>
<path d="M148.887 118.034L148.752 121.783L150.578 123.812L152.674 118.169L148.887 118.034Z" fill="#E58A7B"/>
<path d="M194.859 242.415L190.455 244.115L192.406 249.167L196.809 247.467L194.859 242.415Z" fill="#CF6F64"/>
<path d="M212.137 243.587H207.509L208.388 249.113H213.016L212.137 243.587Z" fill="#CF6F64"/>
<path opacity="0.2" d="M180.07 129.547C180.162 130.659 180.266 131.796 180.402 132.964L198.805 126.99C201.679 126.138 204.177 124.332 205.886 121.869C205.96 120.228 206.052 118.501 206.193 116.7C206.255 115.827 206.329 114.93 206.409 114.02C206.488 113.11 206.599 112.102 206.716 111.131L180.07 129.547Z" fill="black"/>
<path d="M186.081 109.385L185.467 109.312C185.829 106.238 188.122 103.816 190.538 103.878V104.493C188.423 104.45 186.407 106.632 186.081 109.385Z" fill="white"/>
<path d="M189.357 115.059H189.253V114.444C191.367 114.524 193.353 112.317 193.679 109.57L194.293 109.643C193.967 112.649 191.749 115.059 189.357 115.059Z" fill="white"/>
<path d="M200.846 83.4521C199.979 86.839 198.959 93.0411 201.19 95.2969C201.19 95.2969 199.629 98.733 193.341 98.733C187.593 98.733 190.673 95.2969 190.673 95.2969C194.496 94.3995 194.564 91.6089 194.06 88.9658L200.846 83.4521Z" fill="#E58A7B"/>
<path d="M198.08 85.7019L194.066 88.9658C194.19 89.5732 194.262 90.1901 194.281 90.8099C195.455 91.9777 197.809 89.0212 198.049 87.5091C198.171 86.9137 198.181 86.301 198.08 85.7019Z" fill="#CF6F64"/>
<path d="M187.163 83.4091C187.442 83.8932 187.819 84.3145 188.268 84.6466C188.718 84.9787 189.231 85.2145 189.776 85.3392C191.251 85.665 191.988 84.3065 191.583 82.942C191.22 81.7126 190.009 80.0591 188.509 80.3419C188.188 80.4081 187.887 80.5503 187.632 80.7566C187.377 80.9629 187.175 81.2273 187.044 81.5276C186.912 81.828 186.854 82.1556 186.875 82.4829C186.895 82.8103 186.994 83.1279 187.163 83.4091Z" fill="#CF6F64"/>
<path d="M189.603 72.5724C187.305 73.6235 186.493 82.7576 189.382 84.1099C192.271 85.4622 193.955 70.5747 189.603 72.5724Z" fill="#263238"/>
<path d="M201.546 78.3565C200.993 82.942 200.932 85.6404 198.473 87.9885C197.711 88.7677 196.749 89.3211 195.692 89.5878C194.636 89.8545 193.526 89.824 192.485 89.4997C191.445 89.1753 190.514 88.5698 189.796 87.7499C189.079 86.9301 188.601 85.9277 188.417 84.8536C187.673 80.7353 188.7 73.9308 193.298 72.1053C194.264 71.6792 195.326 71.5192 196.375 71.642C197.423 71.7647 198.42 72.1657 199.262 72.8034C200.103 73.4412 200.759 74.2923 201.16 75.2687C201.562 76.2451 201.695 77.3112 201.546 78.3565Z" fill="#E58A7B"/>
<path d="M193.992 74.9451C197.397 74.0784 199.899 73.4883 199.002 76.3219C197.815 80.1083 196.389 83.7718 198.301 83.9378C199.469 84.0422 204.632 81.854 203.974 79.635C203.403 77.705 205.818 77.1763 206.249 76.199C207.841 72.6585 203.286 73.1256 204.097 70.9743C204.909 68.8229 200.409 65.3561 197.951 67.0834C193.949 69.874 187.083 69.831 190.691 65.2393C193.279 61.9631 188.663 62.6331 188.663 62.6331C188.663 62.6331 191.454 64.2866 186.757 66.8436C181.791 69.5728 186.346 76.9059 193.992 74.9451Z" fill="#263238"/>
<path d="M203.354 83.4091C202.681 84.3819 201.671 85.0698 200.52 85.3392C199.002 85.665 198.418 84.3065 198.989 82.942C199.5 81.7126 200.901 80.0591 202.352 80.3419C203.802 80.6246 204.134 82.2044 203.354 83.4091Z" fill="#E58A7B"/>
<path d="M180.857 136.585C180.857 136.585 176.701 173.773 176.376 187.885C176.044 202.564 190.458 248.363 190.458 248.363L197.834 245.29C197.834 245.29 189.228 203.443 190.458 189.029C191.761 173.312 197.145 136.609 197.145 136.609L180.857 136.585Z" fill="#4CAF4F"/>
<path opacity="0.2" d="M191.183 146.794C187.87 153.666 190.101 167.257 191.896 175.309C192.578 169.623 193.39 163.452 194.158 157.742C194.084 148.964 193.402 142.184 191.183 146.794Z" fill="black"/>
<path d="M197.508 242.856C197.545 242.856 198.381 245.204 198.381 245.204L189.874 248.781L188.534 246.286L197.508 242.856Z" fill="#4CAF4F"/>
<path d="M189.64 136.585C189.64 136.585 192.818 171.953 194.92 185.199C197.231 199.712 206.292 248.044 206.292 248.044H214.768C214.768 248.044 209.691 200.886 208.732 186.515C207.687 170.927 205.61 136.585 205.61 136.585H189.64Z" fill="#4CAF4F"/>
<path d="M214.897 245.837C214.934 245.837 215.18 248.204 215.18 248.204H205.861L205.198 245.487L214.897 245.837Z" fill="#4CAF4F"/>
<path opacity="0.2" d="M211.652 243.034C211.633 243.034 211.614 243.028 211.599 243.015C211.585 243.003 211.575 242.986 211.572 242.967C211.523 242.536 206.943 199.939 206.083 187.031C205.149 173.029 203.268 141.969 203.249 141.656C203.248 141.646 203.25 141.635 203.253 141.626C203.256 141.616 203.262 141.607 203.268 141.6C203.275 141.592 203.284 141.586 203.293 141.582C203.303 141.578 203.313 141.576 203.323 141.576C203.343 141.576 203.363 141.583 203.377 141.597C203.392 141.611 203.401 141.63 203.403 141.65C203.403 141.963 205.302 172.998 206.236 187.025C207.097 199.933 211.676 242.499 211.719 242.96C211.721 242.971 211.721 242.981 211.718 242.991C211.716 243.001 211.711 243.01 211.705 243.018C211.698 243.027 211.69 243.033 211.681 243.038C211.672 243.043 211.662 243.046 211.652 243.046V243.034Z" fill="black"/>
<path d="M194.515 79.6351C194.515 80.01 194.281 80.3112 194.035 80.3112C193.789 80.3112 193.611 80.01 193.636 79.6351C193.66 79.2601 193.869 78.9589 194.115 78.9589C194.361 78.9589 194.539 79.2663 194.515 79.6351Z" fill="#263238"/>
<path d="M190.298 79.6351C190.298 80.01 190.058 80.3112 189.818 80.3112C189.579 80.3112 189.394 80.01 189.413 79.6351C189.431 79.2601 189.652 78.9589 189.898 78.9589C190.144 78.9589 190.322 79.2663 190.298 79.6351Z" fill="#263238"/>
<path d="M191.626 79.8256C191.113 80.9705 190.451 82.0431 189.659 83.0157C190.273 83.6304 191.423 83.3477 191.423 83.3477L191.626 79.8256Z" fill="#DF5753"/>
<path d="M191.736 84.9151C191.722 84.9151 191.708 84.9122 191.695 84.9066C191.682 84.901 191.67 84.8927 191.66 84.8824C191.65 84.872 191.643 84.8597 191.638 84.8463C191.633 84.8329 191.631 84.8187 191.632 84.8045C191.633 84.7746 191.646 84.7464 191.668 84.7258C191.69 84.7052 191.719 84.6938 191.749 84.6938C192.219 84.6971 192.684 84.595 193.109 84.395C193.535 84.195 193.91 83.9023 194.207 83.5382C194.229 83.5196 194.256 83.5094 194.284 83.5094C194.312 83.5094 194.34 83.5196 194.361 83.5382C194.381 83.5589 194.392 83.5864 194.392 83.6151C194.392 83.6437 194.381 83.6713 194.361 83.6919C194.043 84.0788 193.641 84.3895 193.187 84.6011C192.733 84.8128 192.237 84.9201 191.736 84.9151Z" fill="#263238"/>
<path d="M195.265 78.5041C195.235 78.5192 195.202 78.527 195.169 78.527C195.136 78.527 195.103 78.5192 195.074 78.5041C194.844 78.3554 194.582 78.2629 194.31 78.2341C194.038 78.2053 193.763 78.2409 193.507 78.3381C193.482 78.3506 193.454 78.3579 193.427 78.3597C193.399 78.3615 193.371 78.3577 193.344 78.3486C193.318 78.3394 193.294 78.325 193.273 78.3064C193.252 78.2877 193.236 78.265 193.224 78.2397C193.201 78.185 193.2 78.1236 193.222 78.0685C193.244 78.0134 193.287 77.969 193.341 77.9447C193.662 77.8135 194.01 77.7617 194.356 77.7938C194.702 77.8259 195.034 77.9409 195.326 78.1291C195.35 78.1451 195.37 78.1657 195.385 78.1895C195.401 78.2134 195.411 78.2401 195.417 78.2681C195.422 78.2962 195.421 78.3249 195.415 78.3528C195.409 78.3806 195.398 78.407 195.381 78.4303C195.35 78.4655 195.31 78.4911 195.265 78.5041Z" fill="#263238"/>
<path d="M188.669 77.2747C188.636 77.2667 188.606 77.2497 188.583 77.2255C188.563 77.2055 188.546 77.1815 188.535 77.1552C188.524 77.1288 188.518 77.1004 188.518 77.0718C188.518 77.0432 188.524 77.0149 188.535 76.9885C188.546 76.9621 188.563 76.9382 188.583 76.9182C188.819 76.6539 189.112 76.4477 189.44 76.3155C189.769 76.1832 190.123 76.1287 190.476 76.156C190.504 76.1603 190.532 76.1704 190.556 76.1857C190.58 76.2009 190.601 76.221 190.617 76.2446C190.633 76.2683 190.644 76.295 190.65 76.323C190.655 76.3511 190.655 76.38 190.648 76.408C190.635 76.4649 190.602 76.515 190.554 76.549C190.507 76.5829 190.448 76.5984 190.39 76.5924C190.111 76.5748 189.831 76.621 189.572 76.7275C189.314 76.834 189.082 76.998 188.896 77.207C188.868 77.2382 188.832 77.2609 188.792 77.2729C188.752 77.2848 188.71 77.2854 188.669 77.2747Z" fill="#263238"/>
<path d="M211.793 102.396L205.401 100.694C205.401 100.694 199.131 116.128 196.912 117.13C193.9 118.507 186.272 123.277 183.026 125.533C182.848 126.301 182.989 128.336 183.395 128.895C188.927 127.887 199.518 123.812 201.731 121.74C206.777 117.013 211.793 102.396 211.793 102.396Z" fill="#E58A7B"/>
<path d="M207.331 254.578C207.019 254.602 206.708 254.518 206.452 254.338C206.372 254.266 206.313 254.176 206.28 254.074C206.246 253.973 206.24 253.865 206.261 253.76C206.265 253.695 206.286 253.632 206.323 253.578C206.36 253.524 206.411 253.48 206.47 253.453C206.986 253.189 208.431 254.104 208.597 254.209C208.615 254.22 208.629 254.237 208.637 254.257C208.645 254.277 208.646 254.299 208.64 254.32C208.635 254.341 208.624 254.361 208.609 254.377C208.594 254.393 208.575 254.405 208.554 254.412C208.153 254.51 207.743 254.566 207.331 254.578ZM206.716 253.619C206.669 253.608 206.621 253.608 206.575 253.619C206.551 253.631 206.531 253.649 206.518 253.672C206.505 253.695 206.499 253.722 206.501 253.748C206.484 253.819 206.487 253.894 206.509 253.964C206.53 254.034 206.57 254.097 206.624 254.147C206.863 254.363 207.466 254.387 208.259 254.233C207.787 253.922 207.255 253.713 206.697 253.619H206.716Z" fill="#4CAF4F"/>
<path d="M208.523 254.412C208.507 254.417 208.49 254.417 208.474 254.412C208.013 254.154 207.146 253.139 207.275 252.623C207.295 252.541 207.341 252.468 207.407 252.416C207.472 252.363 207.554 252.335 207.638 252.334C207.72 252.323 207.804 252.33 207.884 252.354C207.963 252.379 208.037 252.42 208.099 252.476C208.609 252.912 208.64 254.252 208.64 254.32C208.643 254.34 208.639 254.36 208.629 254.378C208.619 254.396 208.603 254.41 208.585 254.418C208.564 254.422 208.542 254.42 208.523 254.412ZM207.699 252.537H207.656C207.515 252.537 207.497 252.617 207.49 252.648C207.417 252.949 207.964 253.717 208.419 254.08C208.417 253.561 208.256 253.054 207.958 252.629C207.886 252.567 207.794 252.534 207.699 252.537Z" fill="#4CAF4F"/>
<path d="M191.011 253.809C190.635 253.941 190.225 253.941 189.849 253.809C189.764 253.763 189.691 253.696 189.639 253.614C189.586 253.533 189.555 253.439 189.548 253.342C189.54 253.281 189.548 253.22 189.571 253.163C189.593 253.106 189.63 253.055 189.677 253.016C190.169 252.574 192.179 253.016 192.406 253.103C192.428 253.108 192.447 253.121 192.46 253.139C192.474 253.157 192.481 253.179 192.48 253.201C192.481 253.224 192.475 253.247 192.463 253.266C192.451 253.286 192.433 253.302 192.412 253.312C191.96 253.516 191.491 253.682 191.011 253.809ZM190.009 253.078C189.939 253.092 189.873 253.124 189.819 253.17C189.799 253.185 189.784 253.205 189.775 253.228C189.767 253.25 189.764 253.275 189.769 253.299C189.773 253.364 189.793 253.426 189.828 253.481C189.862 253.536 189.91 253.581 189.966 253.613C190.292 253.785 191.048 253.65 192.025 253.238C191.367 253.072 190.685 253.018 190.009 253.078Z" fill="#4CAF4F"/>
<path d="M192.394 253.311H192.345C191.73 253.201 190.501 252.494 190.464 251.965C190.464 251.842 190.519 251.67 190.814 251.572C190.914 251.536 191.02 251.521 191.125 251.528C191.231 251.534 191.334 251.562 191.429 251.609C192.093 251.935 192.443 253.115 192.462 253.17C192.466 253.189 192.465 253.208 192.46 253.226C192.455 253.245 192.445 253.261 192.431 253.275C192.422 253.29 192.409 253.302 192.394 253.311ZM190.937 251.756H190.876C190.685 251.824 190.685 251.904 190.685 251.928C190.685 252.248 191.576 252.832 192.197 253.029C192.054 252.535 191.752 252.103 191.337 251.799C191.213 251.737 191.071 251.721 190.937 251.756Z" fill="#4CAF4F"/>
<path d="M183.549 125.17L177.138 128.121L176.394 129.965L178.761 131.557C178.761 131.557 183.186 131.077 184.446 128.231L183.549 125.17Z" fill="#E58A7B"/>
<path d="M183.819 129C183.676 127.768 183.269 126.581 182.627 125.521L183.641 124.758C184.404 125.981 184.891 127.355 185.067 128.784L183.819 129Z" fill="#263238"/>
<path d="M184.913 126.043C185.049 126.256 185.115 126.506 185.104 126.758C185.093 127.011 185.004 127.253 184.849 127.453C184.695 127.653 184.483 127.801 184.242 127.876C184.001 127.951 183.742 127.951 183.502 127.874C183.261 127.797 183.05 127.648 182.897 127.446C182.744 127.245 182.657 127.002 182.647 126.75C182.638 126.497 182.706 126.248 182.843 126.036C182.98 125.823 183.179 125.659 183.414 125.564C183.676 125.43 183.981 125.405 184.262 125.495C184.543 125.585 184.777 125.782 184.913 126.043Z" fill="#263238"/>
<path d="M172.804 130.506L173.659 131.366L179.412 128.907L177.138 128.121L172.804 130.506Z" fill="#E58A7B"/>
<path opacity="0.2" d="M197.508 242.856C197.545 242.856 198.381 245.204 198.381 245.204L189.874 248.781L188.534 246.286L197.508 242.856Z" fill="black"/>
<path opacity="0.2" d="M214.897 245.837C214.934 245.837 215.18 248.204 215.18 248.204H205.861L205.198 245.487L214.897 245.837Z" fill="black"/>
<path d="M213.459 100.626C215.149 106.078 208.542 113.534 208.542 113.534L199.414 109.809C200.496 106.658 201.743 103.566 203.151 100.546C205.954 94.504 211.75 95.1249 213.459 100.626Z" fill="#4CAF4F"/>
<path opacity="0.2" d="M213.459 100.626C215.149 106.078 208.542 113.534 208.542 113.534L199.414 109.809C200.496 106.658 201.743 103.566 203.151 100.546C205.954 94.504 211.75 95.1249 213.459 100.626Z" fill="black"/>
<path d="M122.757 46H118.83V46.6331H122.757V46Z" fill="#4CAF4F"/>
<path d="M173.602 71.0581L173.127 81.6075L173.759 81.636L174.235 71.0866L173.602 71.0581Z" fill="#4CAF4F"/>
<path d="M172.38 48.8398H99.8486L93.0995 199.878H165.631L172.38 48.8398Z" fill="#4CAF4F"/>
<path opacity="0.56" d="M170.217 50.9174H97.6849L90.9358 201.955H163.467L170.217 50.9174Z" fill="#FAFAFA"/>
<path opacity="0.07" d="M168.053 52.9888H95.5213L88.766 204.027H161.298L168.053 52.9888Z" fill="#4CAF4F"/>
<path d="M159.798 118.864H97.8878L97.3715 130.419H159.282L159.798 118.864Z" fill="white"/>
<path d="M131.935 110.43H98.2627L98.0353 115.6H131.707L131.935 110.43Z" fill="#4CAF4F"/>
<path d="M158.402 150.052H96.4924L95.9761 161.608H157.886L158.402 150.052Z" fill="white"/>
<path opacity="0.47" d="M147.05 177.215H105.418L104.797 191.063H146.429L147.05 177.215Z" fill="#4CAF4F"/>
<path d="M144.265 193.215H102.633C102.615 193.219 102.596 193.219 102.578 193.215C102.572 193.197 102.572 193.177 102.578 193.159L103.192 179.305C103.192 179.295 103.194 179.286 103.198 179.277C103.202 179.269 103.207 179.261 103.214 179.254C103.221 179.248 103.23 179.243 103.238 179.24C103.247 179.237 103.257 179.236 103.266 179.237H144.898C144.906 179.233 144.914 179.231 144.923 179.231C144.931 179.231 144.94 179.233 144.947 179.237C144.952 179.244 144.954 179.253 144.954 179.262C144.954 179.27 144.952 179.279 144.947 179.286L144.345 193.172C144.338 193.186 144.326 193.198 144.312 193.206C144.297 193.213 144.281 193.216 144.265 193.215ZM102.707 193.067H144.191L144.806 179.36H103.322L102.707 193.067Z" fill="white"/>
<path d="M124.663 141.619H96.8674L96.64 146.794H124.429L124.663 141.619Z" fill="#4CAF4F"/>
<path d="M146.257 81.5343C146.098 84.8975 144.902 88.1289 142.833 90.7852C141.301 92.7916 139.33 94.4204 137.072 95.5467C134.813 96.6729 132.326 97.2667 129.802 97.2823C127.762 97.2979 125.741 96.8957 123.862 96.1005C121.984 95.3053 120.288 94.1339 118.88 92.6586C117.471 91.1833 116.38 89.4352 115.672 87.522C114.965 85.6088 114.657 83.5711 114.767 81.5343C114.983 77.3078 116.806 73.3236 119.862 70.3963C122.918 67.4691 126.977 65.82 131.209 65.7864C133.251 65.7673 135.274 66.1671 137.155 66.9609C139.035 67.7547 140.733 68.9257 142.143 70.4016C143.554 71.8775 144.646 73.6269 145.354 75.5417C146.061 77.4565 146.368 79.4961 146.257 81.5343Z" fill="white"/>
<path d="M147.738 69.081C147.698 69.9753 147.38 70.8347 146.828 71.5397C146.42 72.0726 145.896 72.5052 145.295 72.8046C144.694 73.1039 144.033 73.2621 143.361 73.267C142.711 73.2709 142.07 73.1156 141.493 72.8145C140.917 72.5134 140.423 72.0757 140.055 71.5397C139.567 70.8154 139.325 69.9533 139.366 69.081C139.426 67.9589 139.911 66.9017 140.723 66.125C141.535 65.3483 142.613 64.9106 143.736 64.9012C144.279 64.8963 144.816 65.0024 145.315 65.213C145.815 65.4236 146.266 65.7343 146.641 66.1259C147.016 66.5175 147.307 66.9817 147.495 67.4899C147.684 67.9982 147.767 68.5397 147.738 69.081Z" fill="#4CAF4F"/>
<path d="M104.557 124.642C104.527 125.137 104.311 125.603 103.952 125.945C103.593 126.287 103.117 126.48 102.621 126.486C102.381 126.488 102.144 126.442 101.923 126.349C101.702 126.257 101.502 126.12 101.336 125.947C101.17 125.774 101.041 125.569 100.958 125.345C100.874 125.12 100.838 124.881 100.85 124.642C100.877 124.145 101.092 123.678 101.452 123.335C101.812 122.992 102.29 122.8 102.787 122.797C103.026 122.796 103.263 122.842 103.484 122.935C103.704 123.028 103.904 123.165 104.069 123.338C104.235 123.511 104.364 123.715 104.448 123.939C104.531 124.164 104.569 124.402 104.557 124.642Z" fill="#263238"/>
<path d="M112.843 124.642C112.815 125.137 112.599 125.604 112.239 125.946C111.88 126.289 111.403 126.482 110.907 126.486C110.668 126.488 110.431 126.441 110.21 126.348C109.99 126.255 109.791 126.118 109.626 125.945C109.461 125.772 109.333 125.567 109.249 125.343C109.166 125.119 109.13 124.88 109.142 124.642C109.169 124.146 109.383 123.68 109.742 123.337C110.101 122.994 110.577 122.801 111.073 122.797C111.312 122.795 111.55 122.841 111.771 122.934C111.992 123.026 112.191 123.163 112.357 123.336C112.523 123.509 112.652 123.714 112.735 123.938C112.819 124.163 112.855 124.402 112.843 124.642Z" fill="#263238"/>
<path d="M121.135 124.642C121.107 125.137 120.891 125.604 120.531 125.946C120.172 126.289 119.695 126.482 119.199 126.486C118.959 126.487 118.722 126.441 118.501 126.348C118.281 126.255 118.082 126.118 117.916 125.945C117.75 125.772 117.621 125.568 117.538 125.344C117.454 125.119 117.417 124.881 117.428 124.642C117.456 124.146 117.672 123.679 118.032 123.337C118.391 122.994 118.868 122.801 119.364 122.797C119.604 122.795 119.842 122.841 120.063 122.934C120.284 123.026 120.483 123.163 120.649 123.336C120.815 123.509 120.944 123.714 121.027 123.938C121.111 124.163 121.147 124.402 121.135 124.642Z" fill="#263238"/>
<path d="M103.162 155.83C103.132 156.325 102.916 156.791 102.557 157.133C102.197 157.476 101.722 157.669 101.226 157.674C100.986 157.676 100.749 157.629 100.528 157.536C100.308 157.443 100.109 157.306 99.9429 157.134C99.7772 156.961 99.6484 156.756 99.5646 156.532C99.4807 156.308 99.4435 156.069 99.4552 155.83C99.4833 155.334 99.6991 154.868 100.059 154.525C100.418 154.183 100.895 153.99 101.391 153.986C101.631 153.984 101.868 154.031 102.089 154.124C102.309 154.217 102.508 154.354 102.674 154.527C102.84 154.699 102.969 154.904 103.052 155.128C103.136 155.352 103.173 155.591 103.162 155.83Z" fill="#263238"/>
<path d="M111.448 155.83C111.42 156.325 111.205 156.791 110.846 157.133C110.488 157.475 110.013 157.669 109.517 157.674C109.278 157.677 109.04 157.631 108.819 157.538C108.598 157.445 108.399 157.308 108.233 157.136C108.067 156.963 107.938 156.758 107.855 156.533C107.771 156.309 107.735 156.069 107.747 155.83C107.775 155.334 107.991 154.868 108.351 154.525C108.71 154.183 109.187 153.99 109.683 153.986C109.922 153.984 110.159 154.031 110.38 154.124C110.6 154.217 110.799 154.354 110.964 154.527C111.129 154.7 111.257 154.904 111.341 155.128C111.424 155.353 111.46 155.591 111.448 155.83Z" fill="#263238"/>
<path d="M119.758 155.83C119.73 156.326 119.514 156.792 119.154 157.135C118.795 157.477 118.318 157.67 117.822 157.674C117.583 157.675 117.346 157.628 117.126 157.534C116.906 157.441 116.707 157.304 116.541 157.132C116.376 156.959 116.247 156.755 116.163 156.531C116.078 156.307 116.041 156.069 116.051 155.83C116.081 155.335 116.297 154.869 116.656 154.527C117.016 154.185 117.491 153.991 117.988 153.986C118.227 153.983 118.465 154.03 118.686 154.122C118.907 154.215 119.106 154.352 119.272 154.525C119.438 154.697 119.567 154.902 119.65 155.127C119.734 155.352 119.77 155.591 119.758 155.83Z" fill="#263238"/>
<path d="M128.031 155.83C128.002 156.325 127.786 156.791 127.426 157.133C127.067 157.476 126.591 157.669 126.095 157.674C125.856 157.675 125.619 157.628 125.399 157.534C125.179 157.441 124.98 157.304 124.815 157.132C124.649 156.959 124.52 156.755 124.436 156.531C124.352 156.307 124.314 156.069 124.325 155.83C124.354 155.335 124.571 154.869 124.93 154.527C125.289 154.185 125.765 153.991 126.261 153.986C126.5 153.984 126.738 154.031 126.958 154.124C127.179 154.217 127.378 154.354 127.544 154.527C127.709 154.699 127.838 154.904 127.922 155.128C128.006 155.352 128.043 155.591 128.031 155.83Z" fill="#263238"/>
<path d="M136.354 155.83C136.325 156.325 136.108 156.791 135.749 157.133C135.39 157.476 134.914 157.669 134.418 157.674C134.178 157.677 133.941 157.631 133.72 157.538C133.499 157.445 133.299 157.308 133.133 157.136C132.967 156.963 132.839 156.758 132.755 156.533C132.672 156.309 132.635 156.069 132.648 155.83C132.676 155.334 132.892 154.868 133.251 154.525C133.611 154.183 134.087 153.99 134.584 153.986C134.823 153.984 135.06 154.031 135.281 154.124C135.502 154.217 135.701 154.354 135.867 154.527C136.032 154.699 136.161 154.904 136.245 155.128C136.329 155.352 136.366 155.591 136.354 155.83Z" fill="#263238"/>
<path d="M135.096 80.7142C137.669 78.1983 137.805 74.1656 135.401 71.7069C132.997 69.2482 128.962 69.2946 126.389 71.8105C123.816 74.3264 123.68 78.3591 126.084 80.8178C128.489 83.2765 132.523 83.2301 135.096 80.7142Z" fill="#4CAF4F"/>
<path d="M142.833 90.7852C141.301 92.7916 139.331 94.4204 137.072 95.5467C134.813 96.6729 132.326 97.2667 129.802 97.2823C127.354 97.3031 124.939 96.7213 122.769 95.5882C120.6 94.4552 118.742 92.8057 117.361 90.7852C120.348 87.8102 125.075 85.8678 130.312 85.8678C135.549 85.8678 140.11 87.8102 142.833 90.7852Z" fill="#4CAF4F"/>
<path opacity="0.1" d="M135.096 80.7142C137.669 78.1983 137.805 74.1656 135.401 71.7069C132.997 69.2482 128.962 69.2946 126.389 71.8105C123.816 74.3264 123.68 78.3591 126.084 80.8178C128.489 83.2765 132.523 83.2301 135.096 80.7142Z" fill="white"/>
<path opacity="0.1" d="M142.833 90.7852C141.301 92.7916 139.331 94.4204 137.072 95.5467C134.813 96.6729 132.326 97.2667 129.802 97.2823C127.354 97.3031 124.939 96.7213 122.769 95.5882C120.6 94.4552 118.742 92.8057 117.361 90.7852C120.348 87.8102 125.075 85.8678 130.312 85.8678C135.549 85.8678 140.11 87.8102 142.833 90.7852Z" fill="white"/>
</svg>
