<svg width="2826" height="2619" viewBox="0 0 2826 2619" fill="none" xmlns="http://www.w3.org/2000/svg">
<path d="M1412.72 1487.24C1445.13 1487.24 1475.59 1474.83 1498.7 1452.29L1499.79 1451.21C1521.28 1429.7 1533.32 1401.53 1535.08 1371.39L1535.13 1370.66L1535.77 1371.01C1553.23 1380.52 1572.92 1386.42 1594.15 1386.42C1626.54 1386.42 1657 1374.01 1680.1 1351.47L1681.2 1350.39C1704.43 1327.22 1717.23 1296.28 1717.23 1263.34V1262.32L1717.91 1262.69C1735.19 1271.95 1754.63 1277.7 1775.56 1277.7H1776.02C1808.27 1277.59 1838.55 1265.19 1861.54 1242.75L1862.63 1241.67C1885.85 1218.42 1898.63 1187.51 1898.63 1154.61L1898.61 476.07C1898.61 213.783 1701.83 0.464586 1460.04 0.464493C1273.82 0.464493 1119.42 109.816 1057.06 285.872H1057.05C1054.2 293.936 1051.21 301.969 1047.73 309.799C1044.09 317.983 1039.81 327.587 1038.31 330.9L1038.3 330.92L1038.29 330.939L1033.74 338.841C1018.27 365.688 970.398 448.62 923.732 529.443C897.066 575.628 870.794 621.125 851.188 655.076C841.384 672.051 833.246 686.14 827.56 695.985C824.716 700.907 822.485 704.769 820.965 707.4C820.205 708.715 819.622 709.724 819.229 710.403C819.033 710.742 818.884 710.999 818.784 711.172C818.734 711.258 818.696 711.323 818.671 711.367C818.658 711.388 818.649 711.405 818.643 711.417L818.634 711.431C803.788 737.071 799.815 766.987 807.494 795.593V795.594C815.132 824.182 833.499 848.078 859.179 862.965L859.178 862.966C879.813 874.79 903.114 880.978 926.7 880.978C975.106 880.978 1020.06 855.034 1044.08 813.252V813.251L1107.36 703.632L1108.22 702.132V1259.54C1108.22 1325.82 1157.84 1381.07 1221.45 1386.05L1222.96 1386.15C1246.55 1387.67 1269.44 1381.94 1289.68 1370.99L1290.32 1370.65L1290.37 1371.37C1294.2 1435.82 1347.32 1487.24 1412.72 1487.24ZM1412.73 1422.53C1380.56 1422.53 1354.38 1396.36 1354.38 1364.19L1354.4 819.883C1354.4 801.983 1339.91 787.508 1322.03 787.508C1304.15 787.509 1289.65 802.004 1289.65 819.883V1263.38C1289.65 1278.78 1283.79 1293.2 1273.12 1304.13L1272.61 1304.65L1272.04 1305.21C1260.02 1316.89 1244.17 1322.48 1227.21 1321.58H1227.2C1197.25 1319.61 1172.95 1291.77 1172.95 1259.56V581.441C1172.95 566.805 1163.12 553.973 1148.97 550.182H1148.97C1134.74 546.331 1119.9 552.553 1112.56 565.224L987.974 780.928H987.973C969.257 813.537 924.31 825.703 891.477 806.843L891.476 806.842C880.861 800.715 873.196 790.702 869.998 778.822L869.997 778.821C866.84 766.941 868.481 754.517 874.671 743.821V743.822C1023.82 485.587 1074.02 398.639 1090.92 366.756L1091.19 366.242L1091.63 366.623L1091.74 366.712C1093.23 365.002 1094.07 363.948 1095.87 360.343C1097.8 356.471 1100.83 349.694 1106.88 336.106C1111.05 326.746 1114.62 317.137 1118.06 307.517V307.516C1171.81 155.785 1299.66 65.1823 1460.04 65.1823H1460.66L1460.65 65.192C1666.57 65.5578 1833.9 249.806 1833.9 476.086L1833.88 1154.62C1833.88 1170.25 1827.85 1184.93 1816.82 1195.95H1816.82C1805.84 1206.92 1791.2 1212.99 1775.56 1212.99C1743.41 1212.99 1717.23 1186.81 1717.23 1154.62L1717.27 819.86C1717.27 801.96 1702.78 787.486 1684.9 787.486C1667 787.486 1652.52 801.98 1652.52 819.86V1263.36C1652.52 1279 1646.47 1293.64 1635.48 1304.6V1304.61L1634.96 1305.12C1623.96 1315.82 1609.54 1321.7 1594.17 1321.7C1561.98 1321.7 1535.8 1295.53 1535.8 1263.38V1258.28L1535.83 819.883C1535.83 801.983 1521.33 787.508 1503.45 787.508C1485.55 787.508 1471.08 802.003 1471.08 819.883V1364.19C1471.08 1379.57 1465.21 1394.03 1454.55 1404.98L1454.04 1405.5C1443.03 1416.48 1428.35 1422.53 1412.73 1422.53Z" fill="#147B3E" stroke="#147B3E" stroke-width="0.928093"/>
<path d="M343.815 2608.32C463.001 2632.66 588.421 2610.21 696.918 2545.14L1278.75 2196.09C1306.94 2179.17 1326.87 2152.29 1334.86 2120.41C1342.83 2088.52 1337.89 2055.44 1320.95 2027.21C1310.38 2009.62 1295.62 1995.73 1278.49 1985.46L1277.83 1985.07L1278.48 1984.67L1278.64 1984.57L1278.65 1984.56C1306.88 1967.62 1326.81 1940.74 1334.78 1908.89C1342.73 1876.99 1337.79 1843.93 1320.87 1815.7C1310.18 1797.84 1295.15 1783.81 1277.71 1773.52L1277.08 1773.15L1277.68 1772.74C1302.62 1755.71 1320.54 1730.9 1327.89 1701.43V1701.43C1335.86 1669.57 1330.92 1636.49 1314 1608.26C1297.36 1580.51 1271.06 1560.76 1239.82 1552.55L1238.33 1552.17C1228.37 1549.69 1218.29 1548.44 1208.25 1548.44C1188.66 1548.44 1169.4 1553.46 1151.7 1562.7L1151.05 1563.04L1151.02 1562.31C1149.95 1539.38 1143.11 1516.86 1129.71 1497.55C1093.01 1444.53 1019.36 1429.91 962.11 1464.29V1464.29L485.593 1750.16L484.107 1751.05L484.948 1749.53L546.419 1638.82H546.42C569.862 1596.8 568.982 1544.87 544.083 1503.37L544.082 1503.37C531.972 1483.14 514.656 1466.36 494.041 1454.85C476.982 1445.38 458.492 1440.9 440.268 1440.9L439.352 1440.9C400.605 1441.2 363.157 1461.81 343.104 1497.99L342.692 1497.78C342.68 1497.8 342.648 1497.86 342.595 1497.95C342.83 1498.07 343.092 1498 343.102 1498C343.1 1498 343.098 1498 343.095 1498.01C343.089 1498.02 343.08 1498.04 343.068 1498.06C343.044 1498.1 343.007 1498.17 342.959 1498.25C342.863 1498.43 342.719 1498.69 342.529 1499.03C342.149 1499.71 341.584 1500.73 340.848 1502.06C339.374 1504.71 337.21 1508.61 334.451 1513.58C328.934 1523.52 321.036 1537.75 311.521 1554.89C292.489 1589.18 266.983 1635.12 241.092 1681.76C189.31 1775.03 135.984 1871.06 129.825 1882.06L129.814 1882.08L129.802 1882.1L124.344 1889.93C121.935 1893.38 119.138 1897.37 116.557 1901.04C111.673 1908.01 106.297 1914.72 100.846 1921.31H100.847C-18.0242 2065.32 -32.3838 2254 63.4414 2413.7C123.987 2514.63 223.564 2583.75 343.815 2608.32ZM663.585 2489.63C569.781 2545.91 461.807 2565.61 359.167 2545.38L356.743 2544.9C255.289 2524.18 171.346 2466.52 120.122 2382.4L118.919 2380.4C36.4247 2242.86 48.3219 2086.64 150.769 1962.51C157.284 1954.6 163.67 1946.57 169.541 1938.21V1938.21C178.202 1925.84 182.522 1919.67 184.876 1915.93C186.051 1914.06 186.727 1912.82 187.207 1911.72C187.628 1910.76 187.902 1909.9 188.23 1908.82L187.661 1908.68L187.989 1908.14C206.903 1876.72 255.92 1788.44 399.737 1529.35C412.054 1507.06 440.22 1499 462.589 1511.38L462.592 1511.38C473.375 1517.42 482.194 1525.95 488.61 1536.65L488.771 1536.92L488.763 1536.93C501.624 1558.58 502.05 1585.52 489.887 1607.35H489.886L368.977 1825.19C361.882 1837.98 364.254 1853.97 374.795 1864.15C385.316 1874.31 401.391 1876.13 413.94 1868.63L995.407 1519.8C1023 1503.22 1059.43 1509.74 1076.49 1534.41C1086.31 1548.59 1089.46 1565.5 1085.32 1582.04C1081.55 1597.11 1072.07 1609.86 1058.68 1617.9L1058.68 1617.9L678.376 1846.05H678.377C663.071 1855.25 658.085 1875.14 667.288 1890.46V1890.46C676.328 1905.57 695.719 1910.64 710.98 1901.97L711.704 1901.55L1091.99 1673.41L1092.1 1673.34H1092.13L1178.46 1621.55H1178.46C1191.8 1613.55 1207.43 1611.2 1222.62 1614.98H1222.63C1237.74 1618.75 1250.48 1628.2 1258.5 1641.57C1266.53 1654.96 1268.87 1670.65 1265.1 1685.74C1261.38 1700.61 1252.16 1713.18 1239.11 1721.24L1238.48 1721.62L771.729 2001.62H771.729C756.424 2010.82 751.438 2030.71 760.641 2046.04C769.844 2061.36 789.691 2066.35 805.058 2057.12L1185.36 1828.98C1212.91 1812.44 1248.83 1821.41 1265.39 1849L1265.39 1849C1273.43 1862.37 1275.78 1878.08 1272 1893.19V1893.19C1268.23 1908.26 1258.76 1921.01 1245.37 1929.05H1245.37L1152.14 1984.98L865.064 2157.2C849.739 2166.4 844.772 2186.29 853.976 2201.61V2201.61C863.015 2216.72 882.446 2221.75 897.67 2213.12L898.392 2212.7L1185.45 2040.49C1213.01 2023.88 1248.93 2032.94 1265.47 2060.51L1265.47 2060.51C1273.39 2073.69 1275.78 2089.1 1272.26 2103.97L1272.09 2104.68C1268.31 2119.79 1258.86 2132.54 1245.47 2140.56L663.585 2489.63Z" fill="#147B3E" stroke="#147B3E" stroke-width="0.928093"/>
<path d="M2128.51 2545.13C2237.03 2610.2 2362.4 2632.61 2481.61 2608.31C2601.88 2583.74 2701.43 2514.64 2761.96 2413.69C2857.79 2254 2843.45 2065.35 2724.6 1921.27C2719.1 1914.65 2713.79 1907.97 2708.87 1900.99V1900.99C2703.7 1893.65 2697.68 1885.01 2695.68 1882.11L2695.67 1882.09L2695.66 1882.07C2686.28 1865.31 2552.96 1625.22 2482.3 1497.92V1497.92C2462.11 1461.45 2424.19 1440.85 2385.14 1440.83C2367.52 1440.83 2349.68 1445.01 2333.11 1453.84L2331.51 1454.71C2311.12 1466.15 2294 1482.59 2281.9 1502.37L2281.33 1503.31C2256.43 1544.83 2255.57 1596.76 2279.05 1638.85L2279.05 1638.85L2340.47 1749.48L2341.31 1751L2339.83 1750.11L1863.33 1464.28C1805.99 1429.88 1732.4 1444.56 1695.68 1497.54C1682.29 1516.86 1675.46 1539.37 1674.38 1562.3L1674.34 1563.03L1673.7 1562.69C1656 1553.43 1636.74 1548.45 1617.12 1548.43L1615.25 1548.45C1606.49 1548.58 1597.66 1549.66 1588.94 1551.71L1587.07 1552.16C1555.69 1560 1529.14 1579.44 1512.19 1606.95L1511.39 1608.27L1510.61 1609.59C1494.32 1637.49 1489.64 1670.04 1497.5 1701.44C1504.84 1730.77 1522.66 1755.5 1547.41 1772.52L1548.01 1772.94L1547.38 1773.31C1530.33 1783.36 1515.4 1797.54 1504.5 1815.67H1504.5C1487.58 1843.89 1482.63 1877 1490.61 1908.87V1908.88C1498.56 1940.75 1518.51 1967.63 1546.72 1984.55H1546.72L1546.73 1984.55L1546.9 1984.66L1547.54 1985.06L1546.89 1985.45C1529.73 1995.72 1514.95 2009.61 1504.4 2027.22C1487.76 2054.96 1482.7 2087.46 1490.11 2118.85L1490.47 2120.34C1498.46 2152.26 1518.41 2179.14 1546.62 2196.06L2128.51 2545.13L2128.51 2545.13ZM2468.61 2544.91C2365.31 2565.99 2256.29 2546.35 2161.77 2489.64L1579.88 2140.58V2140.57C1566.47 2132.51 1557 2119.79 1553.23 2104.7L1553.23 2104.69C1549.55 2089.86 1551.77 2074.4 1559.49 2061.15L1559.86 2060.53C1567.88 2047.16 1580.65 2037.7 1595.74 2033.93C1610.91 2030.14 1626.56 2032.5 1639.91 2040.5L1926.94 2212.72V2212.72C1942.31 2221.96 1962.15 2216.93 1971.36 2201.63C1980.56 2186.28 1975.6 2166.41 1960.27 2157.21L1673.24 1985L1580.01 1929.07C1566.6 1921.01 1557.12 1908.28 1553.35 1893.19L1553.35 1893.19C1549.62 1878.1 1551.94 1862.41 1559.98 1849.02C1576.44 1821.63 1611.91 1812.55 1639.39 1828.61L1640.03 1829L2020.3 2057.14L2020.3 2057.14C2035.66 2066.34 2055.51 2061.36 2064.71 2046.05V2046.05C2073.92 2030.71 2068.95 2010.84 2053.63 2001.64L1677.72 1776.1L1586.89 1721.63H1586.89C1573.51 1713.59 1564.03 1700.84 1560.26 1685.75V1685.75C1556.53 1670.66 1558.85 1654.97 1566.89 1641.6V1641.6C1574.91 1628.19 1587.64 1618.74 1602.77 1614.97V1614.97C1617.86 1611.17 1633.57 1613.54 1646.92 1621.54L2113.67 1901.54C2129.04 1910.76 2148.89 1905.75 2158.09 1890.45V1890.45C2167.29 1875.1 2162.33 1855.23 2147 1846.03L1766.82 1617.95L1766.79 1617.93L1766.76 1617.92L1766.69 1617.85C1753.29 1609.81 1743.83 1597.09 1740.06 1582.01V1582.01C1735.95 1565.49 1739.09 1548.57 1748.91 1534.4C1766.01 1509.71 1802.42 1503.25 1830.01 1519.79L2411.48 1868.62L2411.48 1868.62C2424.09 1876.12 2440.14 1874.33 2450.64 1864.14L2450.64 1864.14C2461.16 1853.96 2463.54 1837.99 2456.42 1825.18L2335.55 1607.4C2323.47 1585.76 2323.76 1559.18 2336.17 1537.69L2336.77 1536.67C2343.19 1525.97 2351.99 1517.42 2362.94 1511.29L2362.94 1511.29C2385.09 1499.05 2412.87 1506.95 2425.35 1528.8L2425.65 1529.32C2564.92 1780.24 2615.58 1871.44 2636.34 1905.79L2636.38 1905.86L2636.4 1905.94C2636.73 1907.59 2637.01 1908.84 2637.5 1910.18C2638 1911.53 2638.72 1912.99 2639.96 1915.05C2642.45 1919.17 2646.99 1925.62 2655.88 1938.23L2655.88 1938.23C2661.71 1946.55 2668.12 1954.62 2674.65 1962.53C2777.08 2086.61 2788.99 2242.85 2706.42 2380.42C2655.31 2465.63 2570.84 2524.04 2468.61 2544.91Z" fill="#147B3E" stroke="#147B3E" stroke-width="0.928093"/>
</svg>
